<svg xmlns="http://www.w3.org/2000/svg" xmlns:xlink="http://www.w3.org/1999/xlink" aria-hidden="true" role="img" class="iconify iconify--logos" width="31.88" height="32" preserveAspectRatio="xMidYMid meet" viewBox="0 0 256 257"><defs><linearGradient id="IconifyId1813088fe1fbc01fb466" x1="-.828%" x2="57.636%" y1="7.652%" y2="78.411%"><stop offset="0%" stop-color="#FF00DC"></stop><stop offset="100%" stop-color="#FF00DC"></stop></linearGradient><linearGradient id="IconifyId1813088fe1fbc01fb467" x1="43.376%" x2="50.316%" y1="2.242%" y2="89.03%"><stop offset="0%" stop-color="#FFEA83"></stop><stop offset="8.333%" stop-color="#FFDD35"></stop><stop offset="100%" stop-color="#FFA800"></stop></linearGradient></defs><path fill="url(#IconifyId1813088fe1fbc01fb466)" d="M128.001 0c-35.338 0-64.083 28.645-64.083 64.027c0 35.383 28.745 64.027 64.083 64.027s64.083-28.644 64.083-64.027C192.084 28.645 163.339 0 128.001 0zm.001 122.149c-32.093 0-58.122-26.029-58.122-58.122s26.029-58.122 58.122-58.122s58.122 26.029 58.122 58.122s-26.029 58.122-58.122 58.122zm0-102.65c-24.571 0-44.528 19.957-44.528 44.528s19.957 44.528 44.528 44.528s44.528-19.957 44.528-44.528s-19.957-44.528-44.528-44.528z"></path><path fill="url(#IconifyId1813088fe1fbc01fb467)" d="M212.026 221.667c-15.244-11.591-30.487-23.18-45.731-34.769c-4.399-3.35-3.99-10.734 1.197-13.41c5.187-2.677 13.007-1.127 17.405 2.224c15.244 11.591 30.487 23.18 45.731 34.769c4.399 3.35 3.99 10.734-1.197 13.41c-5.187 2.677-13.006 1.127-17.405-2.224z"></path><path fill="url(#IconifyId1813088fe1fbc01fb467)" d="M43.974 221.667c15.244-11.591 30.487-23.18 45.731-34.769c4.399-3.35 3.99-10.734-1.197-13.41c-5.187-2.677-13.007-1.127-17.405 2.224c-15.244 11.591-30.487 23.18-45.731 34.769c-4.399 3.35-3.99 10.734 1.197 13.41c5.187 2.677 13.006 1.127 17.405-2.224z"></path></svg>
